<svg width="43" height="37" viewBox="0 0 43 37" fill="none" xmlns="http://www.w3.org/2000/svg">
<path d="M-0.000167817 18.081C-0.000167817 12.4296 1.0125 8.00331 3.03783 4.80198C5.09583 1.60065 8.49317 -1.90735e-05 13.2298 -1.90735e-05C17.9665 -1.90735e-05 21.3475 1.60065 23.3728 4.80198C25.4308 8.00331 26.4598 12.4296 26.4598 18.081C26.4598 23.765 25.4308 28.224 23.3728 31.458C21.3475 34.692 17.9665 36.309 13.2298 36.309C8.49317 36.309 5.09583 34.692 3.03783 31.458C1.0125 28.224 -0.000167817 23.765 -0.000167817 18.081ZM19.6978 18.081C19.6978 15.6636 19.5345 13.6383 19.2078 12.005C18.9138 10.339 18.2932 8.98331 17.3458 7.93798C16.4312 6.89265 15.0592 6.36998 13.2298 6.36998C11.4005 6.36998 10.0122 6.89265 9.06483 7.93798C8.15017 8.98331 7.5295 10.339 7.20283 12.005C6.90883 13.6383 6.76183 15.6636 6.76183 18.081C6.76183 20.5636 6.90883 22.6543 7.20283 24.353C7.49683 26.019 8.1175 27.3746 9.06483 28.42C10.0122 29.4326 11.4005 29.939 13.2298 29.939C15.0592 29.939 16.4475 29.4326 17.3948 28.42C18.3422 27.3746 18.9628 26.019 19.2568 24.353C19.5508 22.6543 19.6978 20.5636 19.6978 18.081ZM30.8446 7.00698V0.685981H42.6536V36.407H35.5976V7.00698H30.8446Z" fill="#546EA4"/>
</svg>
