<svg width="24" height="24" viewBox="0 0 24 24" fill="none" xmlns="http://www.w3.org/2000/svg">
<g clip-path="url(#clip0_1945_1460)">
<mask id="mask0_1945_1460" style="mask-type:luminance" maskUnits="userSpaceOnUse" x="0" y="0" width="24" height="24">
<path d="M24 0H0V24H24V0Z" fill="white"/>
</mask>
<g mask="url(#mask0_1945_1460)">
<path d="M23.3145 3.28081C22.9614 2.92714 22.3886 2.92653 22.0355 3.27931L11.1843 14.1019L7.26917 9.84973C6.93087 9.48251 6.3589 9.4587 5.99108 9.79695C5.62353 10.1352 5.6 10.7075 5.93829 11.075L10.4911 16.0195C10.6578 16.2007 10.8912 16.3059 11.1372 16.311C11.1438 16.3113 11.1502 16.3113 11.1565 16.3113C11.3956 16.3113 11.6256 16.2163 11.7951 16.0475L23.3127 4.56007C23.6667 4.20734 23.6673 3.63448 23.3145 3.28081Z" fill="#546EA4"/>
<path d="M23.0955 11.0955C22.5959 11.0955 22.191 11.5004 22.191 12C22.191 17.6195 17.6195 22.191 12 22.191C6.38081 22.191 1.80905 17.6195 1.80905 12C1.80905 6.38081 6.38081 1.80905 12 1.80905C12.4996 1.80905 12.9045 1.40414 12.9045 0.904547C12.9045 0.404906 12.4996 0 12 0C5.38312 0 0 5.38312 0 12C0 18.6166 5.38312 24 12 24C18.6166 24 24 18.6166 24 12C24 11.5004 23.5951 11.0955 23.0955 11.0955Z" fill="#546EA4"/>
</g>
</g>
<defs>
<clipPath id="clip0_1945_1460">
<rect width="24" height="24" fill="white"/>
</clipPath>
</defs>
</svg>
