<svg width="36" height="36" viewBox="0 0 36 36" fill="none" xmlns="http://www.w3.org/2000/svg">
<g clip-path="url(#clip0_1755_1869)">
<path d="M27.4922 34.875C27.4922 33.1275 26.0756 31.7109 24.3281 31.7109H11.6719C9.9244 31.7109 8.50781 33.1275 8.50781 34.875V36H27.4922V34.875Z" fill="#546EA4"/>
<path d="M33.8906 8.50781V6.39844H20.9698C20.6511 5.50491 19.9482 4.80199 19.0547 4.48334V0H16.9453V4.48334C16.0518 4.80199 15.3489 5.50491 15.0302 6.39844H2.10938V8.50781H4.74638L0 20.1094C0 23.017 2.3658 25.3828 5.27344 25.3828H7.38281C10.2904 25.3828 12.6562 23.017 12.6562 20.1094L7.88843 8.50781H15.0303C15.3489 9.40134 16.0519 10.1043 16.9454 10.4229V25.4984C14.8842 25.9202 13.2536 27.5396 12.8334 29.6016H23.1668C22.7465 27.5396 21.116 25.9202 19.0548 25.4984V10.4229C19.9483 10.1043 20.6512 9.40134 20.9699 8.50781H28.0902L23.3438 20.1094C23.3438 23.017 25.7096 25.3828 28.6172 25.3828H30.7266C33.6342 25.3828 36 23.017 36 20.1094L31.2322 8.50781H33.8906ZM10.0192 19.0547H2.637L6.32812 10.1949L10.0192 19.0547ZM33.363 19.0547H25.9807L29.6719 10.1949L33.363 19.0547Z" fill="#546EA4"/>
</g>
<defs>
<clipPath id="clip0_1755_1869">
<rect width="36" height="36" fill="white"/>
</clipPath>
</defs>
</svg>
