<svg width="40" height="40" viewBox="0 0 40 40" fill="none" xmlns="http://www.w3.org/2000/svg">
<g clip-path="url(#clip0_1749_1741)">
<path d="M38.8279 37.7778H1.17187C0.524684 37.7778 0 37.2531 0 36.6059V34.2622C0 33.615 0.524684 33.0903 1.17187 33.0903H38.8279C39.4751 33.0903 39.9998 33.615 39.9998 34.2622V36.6059C39.9998 37.2531 39.4752 37.7778 38.8279 37.7778Z" fill="#546EA4"/>
<path d="M25.0781 30.6858C25.0781 30.0386 24.5534 29.5139 23.9062 29.5139H16.0938C15.4466 29.5139 14.9219 30.0386 14.9219 30.6858V31.8577H25.0781V30.6858Z" fill="#546EA4"/>
<path d="M37.5781 30.6858C37.5781 30.0386 37.0534 29.5139 36.4062 29.5139H28.5938C27.9466 29.5139 27.4219 30.0386 27.4219 30.6858V31.8577H37.5781V30.6858Z" fill="#546EA4"/>
<path d="M12.5781 30.6858C12.5781 30.0386 12.0534 29.5139 11.4063 29.5139H3.59375C2.94656 29.5139 2.42188 30.0386 2.42188 30.6858V31.8577H12.5781V30.6858Z" fill="#546EA4"/>
<path d="M14.9219 16.3456C14.9219 16.9928 15.4466 17.5175 16.0938 17.5175H23.9062C24.5534 17.5175 25.0781 16.9928 25.0781 16.3456V15.1737H14.9219V16.3456Z" fill="#546EA4"/>
<path d="M27.4219 16.3456C27.4219 16.9928 27.9466 17.5175 28.5938 17.5175H36.4062C37.0534 17.5175 37.5781 16.9928 37.5781 16.3456V15.1737H27.4219V16.3456Z" fill="#546EA4"/>
<path d="M2.42188 16.3456C2.42188 16.9928 2.94656 17.5175 3.59375 17.5175H11.4063C12.0534 17.5175 12.5781 16.9928 12.5781 16.3456V15.1737H2.42188V16.3456Z" fill="#546EA4"/>
<path d="M29.7656 18.75H35.2344V28.2813H29.7656V18.75Z" fill="#546EA4"/>
<path d="M17.2656 18.75H22.7344V28.2813H17.2656V18.75Z" fill="#546EA4"/>
<path d="M4.76562 18.75H10.2344V28.2813H4.76562V18.75Z" fill="#546EA4"/>
<path d="M39.3504 11.7202L20.5223 2.34528C20.1934 2.18146 19.8066 2.18146 19.4777 2.34528L0.649648 11.7202C0.162854 11.9626 -0.093238 12.5081 0.0312144 13.0376C0.155667 13.567 0.628086 13.9412 1.17199 13.9412H38.828C39.3718 13.9412 39.8443 13.5669 39.9688 13.0376C40.0933 12.5081 39.8372 11.9626 39.3504 11.7202ZM20 9.6443C19.3528 9.6443 18.8281 9.11962 18.8281 8.47243C18.8281 7.82525 19.3528 7.30057 20 7.30057C20.6472 7.30057 21.1719 7.82525 21.1719 8.47243C21.1719 9.11962 20.6473 9.6443 20 9.6443Z" fill="#546EA4"/>
</g>
<defs>
<clipPath id="clip0_1749_1741">
<rect width="40" height="40" fill="white"/>
</clipPath>
</defs>
</svg>
