<svg width="40" height="40" viewBox="0 0 40 40" fill="none" xmlns="http://www.w3.org/2000/svg">
<path d="M3.71591 28.0076L17.1951 16.0377L19.8291 18.6717L7.8593 32.151C6.73478 33.4264 4.77249 33.4868 3.57252 32.2868C2.3725 31.0868 2.44044 29.1245 3.71591 28.0076Z" fill="#546EA4"/>
<path d="M19.8365 30.9585C19.8365 29.6075 20.9308 28.5208 22.2742 28.5208H32.2063C33.5497 28.5208 34.644 29.6075 34.644 30.9585V32.0453H19.8365V30.9585Z" fill="#546EA4"/>
<path d="M19.6328 32.7999H34.8479C36.1913 32.7999 37.2856 33.8867 37.2856 35.2376V37.1622C37.2856 37.6226 36.9083 37.9999 36.4479 37.9999H18.0328C17.5649 37.9999 17.1951 37.6226 17.1951 37.1622V35.2376C17.1951 33.8867 18.2894 32.7999 19.6328 32.7999Z" fill="#546EA4"/>
<path d="M30.0972 13.4611L22.3943 5.75823L15.1973 12.9552L22.9002 20.6581L30.0972 13.4611Z" fill="#546EA4"/>
<path d="M14.513 12.5795C13.8044 13.2882 12.6573 13.2882 11.9486 12.5795C11.2399 11.8708 11.2399 10.7238 11.9486 10.0151L19.4368 2.52697C19.7911 2.1726 20.2573 1.99544 20.719 2.00009C21.1806 1.99544 21.6468 2.1726 22.0012 2.52697C22.7099 3.23572 22.7099 4.38267 22.0012 5.09142L14.513 12.5795Z" fill="#546EA4"/>
<path d="M25.8475 23.9142C25.1388 24.6229 23.9918 24.6229 23.2831 23.9142C22.5744 23.2055 22.5744 22.0585 23.2831 21.3498L30.7712 13.8617C31.1256 13.5074 31.5919 13.3302 32.0488 13.3302C32.515 13.3302 32.9813 13.5074 33.3357 13.8617C34.0444 14.5704 34.0444 15.7174 33.3357 16.4261L25.8475 23.9142Z" fill="#546EA4"/>
</svg>
