<svg width="24" height="24" viewBox="0 0 24 24" fill="none" xmlns="http://www.w3.org/2000/svg">
<path d="M9.16984 0C6.81997 0 4.47019 0.894176 2.68211 2.68272C-0.894038 6.2598 -0.894038 12.0845 2.68211 15.6615C4.47019 17.4501 6.81412 18.3447 9.18211 18.3447C11.5501 18.3447 13.894 17.4501 15.6821 15.6615C19.2341 12.0845 19.2337 6.2598 15.6576 2.68272C13.8695 0.894176 11.5197 0 9.16984 0ZM9.15804 1.42609C11.1394 1.42609 13.1207 2.17497 14.6188 3.69765C17.6392 6.71883 17.6391 11.6254 14.6429 14.6466C11.6225 17.6678 6.71718 17.6678 3.69678 14.6466C0.676381 11.6254 0.676381 6.71883 3.69678 3.69765C5.1949 2.19914 7.17666 1.42609 9.15804 1.42609ZM9.15804 2.87626C7.49078 2.87626 5.91998 3.52865 4.73599 4.73712C3.60032 5.87309 2.97217 7.34752 2.89968 8.9427C2.87551 9.35358 3.18973 9.66769 3.60051 9.69186H3.62457C4.01119 9.69186 4.32531 9.37757 4.34947 8.99085C4.3978 7.75821 4.90494 6.62215 5.75065 5.75205C6.66885 4.83361 7.87739 4.32643 9.15804 4.32643C9.56881 4.32643 9.88294 4.01223 9.88294 3.60135C9.88294 3.19046 9.56881 2.87626 9.15804 2.87626ZM4.97762 11.988C4.78536 11.988 4.60098 12.0644 4.46504 12.2003C4.3291 12.3363 4.25272 12.5207 4.25272 12.713C4.25272 12.9054 4.3291 13.0898 4.46504 13.2258C4.60098 13.3617 4.78536 13.4381 4.97762 13.4381C5.16987 13.4381 5.35425 13.3617 5.4902 13.2258C5.62614 13.0898 5.70251 12.9054 5.70251 12.713C5.70251 12.5207 5.62614 12.3363 5.4902 12.2003C5.35425 12.0644 5.16987 11.988 4.97762 11.988ZM16.6637 15.9759C16.4795 15.9759 16.2983 16.0485 16.1654 16.1935C15.8754 16.4836 15.8754 16.9426 16.1654 17.2085L16.7694 17.8127C16.6245 18.1027 16.5519 18.417 16.5519 18.7554C16.5519 19.3355 16.7693 19.8915 17.18 20.3024L20.2731 23.3476C20.708 23.7827 21.2634 24 21.8192 24C22.3749 24 22.9308 23.7826 23.3657 23.3717C24.2114 22.5258 24.2114 21.1483 23.3657 20.3024L20.2731 17.2085C19.8623 16.7976 19.3065 16.5802 18.7266 16.5802C18.3883 16.5802 18.0741 16.6528 17.7841 16.7978L17.18 16.1935C17.0351 16.0485 16.848 15.9759 16.6637 15.9759ZM18.7266 18.0063C18.9199 18.0063 19.1131 18.0789 19.2339 18.2239L22.3024 21.2932C22.5924 21.5832 22.5924 22.0423 22.3024 22.3081C22.0125 22.5982 21.5536 22.5982 21.2878 22.3081L18.2192 19.2629C18.0743 19.1179 18.0017 18.9247 18.0017 18.7313C18.0017 18.538 18.0743 18.3447 18.2192 18.2239C18.3642 18.0789 18.5333 18.0063 18.7266 18.0063Z" fill="white"/>
</svg>
