<svg width="19" height="19" viewBox="0 0 19 19" fill="none" xmlns="http://www.w3.org/2000/svg">
<path d="M8.41532 9.30055C9.3879 9.46023 10.3387 9.61991 11.2895 9.77234C11.3766 9.78685 11.5073 9.80863 11.5653 9.75782C11.8629 9.50378 12.2185 9.54007 12.5669 9.54007C13.3653 9.54007 14.1637 9.54007 14.9621 9.54007C15.579 9.54007 15.9202 9.88847 15.9274 10.5054C15.9274 10.7449 15.9274 10.9845 15.9274 11.2821C16.4573 11.2821 16.9726 11.2821 17.4879 11.2821C18.054 11.2821 18.25 11.478 18.25 12.0442C18.25 13.8587 18.25 15.6733 18.25 17.4879C18.25 18.0613 18.0613 18.25 17.4952 18.25C11.921 18.25 6.34677 18.25 0.772581 18.25C0.300806 18.25 0.25 18.1992 0.25 17.7274C0.25 15.8185 0.25 13.9096 0.25 11.9934C0.25 10.8466 0.881452 10.0772 2.02097 9.8667C3.14597 9.66346 4.28548 9.48201 5.41048 9.29329C5.5629 8.7707 5.5121 8.63279 5.12016 8.31343C4.40887 7.74002 4.06048 6.98516 4.00968 6.09239C3.16774 5.93997 2.87742 5.71496 2.8629 5.19963C2.85564 4.71332 3.16048 4.41573 3.82097 4.27783C3.72661 4.08185 3.625 3.88588 3.5379 3.68991C3.10968 2.72456 3.5379 1.67211 4.51048 1.25113C4.72097 1.16403 4.90968 1.03338 5.09113 0.902729C6.07097 0.176901 7.11613 0.0535106 8.23387 0.547073C8.46613 0.648689 8.69839 0.757563 8.92339 0.866437C10.1427 1.45436 10.6363 2.71004 10.1282 3.96572C10.0847 4.06734 10.0484 4.16895 10.0121 4.27057C10.7161 4.43025 11.0355 4.75687 10.9847 5.26495C10.9411 5.77303 10.5782 6.03433 9.85968 6.07062C9.83064 6.26659 9.80161 6.46257 9.75806 6.65854C9.62016 7.31904 9.27903 7.86341 8.76371 8.29891C8.33548 8.65456 8.32823 8.64731 8.41532 9.30055ZM11.2605 10.3675C10.3532 10.2151 9.46048 10.0917 8.575 9.90299C8.08145 9.80137 7.69677 10.1353 7.97258 10.607C8.09597 10.8175 8.16855 11.0643 7.95806 11.2748C7.55161 11.6813 7.5371 12.124 7.82742 12.6031C7.92177 12.7555 7.97984 12.9297 8.03064 13.1039C8.06693 13.2273 8.08145 13.3652 8.05968 13.4886C7.79839 14.6572 7.52984 15.8185 7.24677 16.9798C7.21048 17.125 7.05081 17.2411 6.94194 17.3645C6.83306 17.2411 6.66613 17.1322 6.62984 16.9871C6.40484 16.1016 6.24516 15.187 5.98387 14.3088C5.76613 13.5829 5.78064 12.9152 6.16532 12.2692C6.33226 11.9789 6.28145 11.7466 6.07097 11.5216C5.78064 11.2022 5.7371 10.8683 5.91855 10.4619C6.07823 10.1062 5.83871 9.82315 5.44677 9.88121C4.32903 10.0627 3.20403 10.2369 2.08629 10.4401C1.27339 10.5853 0.845161 11.1369 0.837903 11.9716C0.837903 13.7644 0.837903 15.5499 0.837903 17.3427C0.837903 17.4371 0.845161 17.5314 0.852419 17.6258C1.62903 17.6258 2.38387 17.6258 3.16774 17.6258C3.16774 15.9854 3.16774 14.3668 3.16774 12.7337C3.37097 12.7337 3.5379 12.7337 3.75565 12.7337C3.75565 14.3813 3.75565 16.0072 3.75565 17.633C5.50484 17.633 7.21774 17.633 8.96694 17.633C8.96694 17.4879 8.96694 17.3572 8.96694 17.2266C8.96694 15.4846 8.96694 13.7426 8.96694 12.0006C8.96694 11.4563 9.17016 11.2603 9.71452 11.2603C10.2298 11.2603 10.7452 11.2603 11.2677 11.2603C11.2605 10.9482 11.2605 10.6651 11.2605 10.3675ZM8.84355 3.61732C7.55887 4.54638 6.28871 4.54638 5.01129 3.61732C4.76452 4.02379 4.55403 4.40847 4.59758 4.90204C4.63387 5.28673 4.59758 5.67141 4.60484 6.06336C4.61935 7.26098 5.51935 8.2481 6.69516 8.36423C7.87097 8.48036 8.96693 7.69647 9.18468 6.52063C9.27177 6.02707 9.20645 5.51173 9.25726 5.00365C9.30806 4.49557 9.14113 4.06008 8.84355 3.61732ZM17.6694 11.8845C14.9403 11.8845 12.2548 11.8845 9.54758 11.8845C9.54758 12.2256 9.53306 12.5377 9.55484 12.8498C9.59839 13.5176 10.1282 14.1055 10.796 14.1563C11.4274 14.2071 12.0661 14.1636 12.7339 14.1636C12.7339 13.895 12.7411 13.6555 12.7339 13.416C12.7266 13.1474 12.8355 13.0023 13.1185 13.0095C13.4452 13.0168 13.7718 13.0168 14.0984 13.0095C14.3815 13.0023 14.4903 13.1474 14.4831 13.416C14.4758 13.6628 14.4831 13.9096 14.4831 14.1709C15.129 14.1709 15.7242 14.1926 16.3121 14.1636C17.0452 14.1346 17.6258 13.5394 17.6694 12.8063C17.6839 12.516 17.6694 12.2111 17.6694 11.8845ZM9.54032 16.479C12.2694 16.479 14.9621 16.479 17.6403 16.479C17.6403 15.7169 17.6403 14.9765 17.6403 14.1781C16.6895 15.0781 15.5355 14.6354 14.4903 14.7878C14.4323 15.5354 14.171 15.9056 13.6556 15.9056C13.4669 15.9056 13.1984 15.8548 13.0968 15.7241C12.8863 15.4556 12.7702 15.1217 12.5887 14.7588C11.6379 14.6499 10.4984 15.0564 9.54032 14.1491C9.54032 14.316 9.54032 14.4031 9.54032 14.483C9.54032 15.1507 9.54032 15.7967 9.54032 16.479ZM4.27097 3.74797C4.37258 3.552 4.45968 3.37054 4.54677 3.19634C4.75 2.79714 4.86613 2.7681 5.23629 3.04392C5.37419 3.14553 5.50484 3.25441 5.65 3.34151C6.40484 3.8133 7.19597 3.87136 7.99435 3.4649C8.24839 3.33425 8.48064 3.14553 8.7129 2.97859C8.95968 2.79714 9.13387 2.84069 9.26452 3.10924C9.35887 3.30522 9.46774 3.49393 9.58387 3.71894C9.94677 2.86972 9.65645 1.9334 8.8871 1.50517C8.50242 1.28742 8.08145 1.10596 7.66774 0.960795C6.99274 0.721272 6.21613 0.837404 5.85323 1.16403C6.20161 1.45436 6.55726 1.74469 6.95645 2.07131C6.72419 2.23099 6.57903 2.32535 6.43387 2.42697C5.69355 1.63581 5.01129 1.49065 4.40161 1.97695C3.87177 2.41245 3.80645 3.10924 4.27097 3.74797ZM9.54758 17.6476C12.2621 17.6476 14.9548 17.6476 17.6403 17.6476C17.6403 17.4516 17.6403 17.2847 17.6403 17.1177C14.9258 17.1177 12.2403 17.1177 9.54758 17.1177C9.54758 17.2919 9.54758 17.4516 9.54758 17.6476ZM12.7484 10.1207C12.9952 10.4691 13.2202 10.803 13.4597 11.1296C13.5105 11.195 13.5976 11.2748 13.6702 11.2748C14.2218 11.2893 14.7734 11.2821 15.3468 11.2821C15.3468 10.9772 15.354 10.7159 15.3468 10.4474C15.3395 10.2224 15.2161 10.1207 14.9984 10.1207C14.2363 10.1207 13.4815 10.1207 12.7484 10.1207ZM6.88387 15.5935C6.9129 15.5935 6.94194 15.5935 6.97097 15.5935C7.09435 15.0564 7.17419 14.5047 7.3629 13.9894C7.60242 13.3362 7.28306 12.8208 7.05806 12.2764C7.03629 12.2329 6.83306 12.2039 6.82581 12.2184C6.66613 12.6176 6.38306 13.0313 6.4121 13.4232C6.47016 14.1491 6.71694 14.8676 6.88387 15.5935ZM7.78387 8.9086C7.21048 8.9086 6.65161 8.9086 6.08548 8.9086C6.00564 9.46023 6.08548 9.59814 6.97097 10.2804C7.24677 9.80863 7.99435 9.62717 7.78387 8.9086ZM13.3218 13.612C13.3218 14.1055 13.3073 14.5773 13.3363 15.0418C13.3435 15.1435 13.525 15.2378 13.6266 15.3394C13.721 15.2451 13.8806 15.1507 13.8879 15.0491C13.9169 14.5701 13.9024 14.091 13.9024 13.612C13.6847 13.612 13.5323 13.612 13.3218 13.612ZM12.879 11.2603C12.6323 10.8248 12.3274 10.5707 11.8847 10.4764C11.8847 10.7522 11.8847 10.999 11.8847 11.2603C12.2113 11.2603 12.5161 11.2603 12.879 11.2603ZM6.49193 10.6651C6.31048 11.1006 6.64435 11.2748 6.78952 11.5143C6.81855 11.5579 7.06532 11.5506 7.09435 11.4998C7.23226 11.2603 7.56613 11.0788 7.37016 10.6506C7.06532 11.1006 6.775 11.0571 6.49193 10.6651ZM4.00968 4.82945C3.80645 4.91655 3.63952 4.97462 3.49435 5.06172C3.45081 5.09075 3.45806 5.28673 3.50161 5.3085C3.64677 5.3956 3.81371 5.44641 4.00968 5.52625C4.00968 5.26495 4.00968 5.09075 4.00968 4.82945ZM9.84516 5.54802C10.0629 5.45367 10.2298 5.40286 10.3605 5.3085C10.404 5.27221 10.3895 5.05446 10.3387 5.02543C10.2008 4.93833 10.0339 4.9093 9.84516 4.84397C9.84516 5.09801 9.84516 5.26495 9.84516 5.54802Z" fill="#546EA4" stroke="#546EA4" stroke-width="0.5" stroke-linejoin="round"/>
</svg>
