<svg width="18" height="24" viewBox="0 0 18 24" fill="none" xmlns="http://www.w3.org/2000/svg">
<path d="M11.25 0H3C2.20435 0 1.44129 0.316071 0.87868 0.87868C0.31607 1.44129 0 2.20435 0 3V21C0 21.7956 0.31607 22.5587 0.87868 23.1213C1.44129 23.6839 2.20435 24 3 24H15C15.7956 24 16.5587 23.6839 17.1213 23.1213C17.6839 22.5587 18 21.7956 18 21V6.75L11.25 0ZM11.25 1.5V4.5C11.25 5.09674 11.4871 5.66903 11.909 6.09099C12.331 6.51295 12.9033 6.75 13.5 6.75H16.5V21C16.5 21.3978 16.342 21.7794 16.0607 22.0607C15.7794 22.342 15.3978 22.5 15 22.5H3C2.60218 22.5 2.22064 22.342 1.93934 22.0607C1.65804 21.7794 1.5 21.3978 1.5 21V3C1.5 2.60218 1.65804 2.22064 1.93934 1.93934C2.22064 1.65804 2.60218 1.5 3 1.5H11.25Z" fill="#546EA4"/>
<path d="M5.04999 10.5C4.85108 10.5 4.66031 10.579 4.51966 10.7197C4.37901 10.8603 4.29999 11.0511 4.29999 11.25C4.29999 11.4489 4.37901 11.6397 4.51966 11.7803C4.66031 11.921 4.85108 12 5.04999 12H12.55C12.7489 12 12.9397 11.921 13.0803 11.7803C13.221 11.6397 13.3 11.4489 13.3 11.25C13.3 11.0511 13.221 10.8603 13.0803 10.7197C12.9397 10.579 12.7489 10.5 12.55 10.5H5.04999ZM4.29999 14.25C4.29999 14.0511 4.37901 13.8603 4.51966 13.7197C4.66031 13.579 4.85108 13.5 5.04999 13.5H12.55C12.7489 13.5 12.9397 13.579 13.0803 13.7197C13.221 13.8603 13.3 14.0511 13.3 14.25C13.3 14.4489 13.221 14.6397 13.0803 14.7803C12.9397 14.921 12.7489 15 12.55 15H5.04999C4.85108 15 4.66031 14.921 4.51966 14.7803C4.37901 14.6397 4.29999 14.4489 4.29999 14.25ZM4.29999 17.25C4.29999 17.0511 4.37901 16.8603 4.51966 16.7197C4.66031 16.579 4.85108 16.5 5.04999 16.5H8.04999C8.2489 16.5 8.43967 16.579 8.58032 16.7197C8.72097 16.8603 8.79999 17.0511 8.79999 17.25C8.79999 17.4489 8.72097 17.6397 8.58032 17.7803C8.43967 17.921 8.2489 18 8.04999 18H5.04999C4.85108 18 4.66031 17.921 4.51966 17.7803C4.37901 17.6397 4.29999 17.4489 4.29999 17.25Z" fill="#546EA4"/>
</svg>
