<svg width="19" height="19" viewBox="0 0 19 19" fill="none" xmlns="http://www.w3.org/2000/svg">
<g clip-path="url(#clip0_1544_531)">
<path d="M17.48 12.16C17.3624 12.16 17.2463 12.1327 17.141 12.0802L15.621 11.3202C15.4406 11.2301 15.3034 11.072 15.2396 10.8808C15.1757 10.6895 15.1905 10.4807 15.2806 10.3003C15.3707 10.1199 15.5287 9.98266 15.72 9.91881C15.9113 9.85496 16.1201 9.8697 16.3005 9.9598L17.8205 10.7198C17.9739 10.7963 18.097 10.9223 18.1697 11.0776C18.2424 11.2328 18.2605 11.408 18.2211 11.5749C18.1817 11.7417 18.087 11.8903 17.9524 11.9965C17.8179 12.1027 17.6514 12.1603 17.48 12.16ZM16.2997 5.244L17.8197 4.484C18.0001 4.3939 18.1373 4.23583 18.2012 4.04456C18.265 3.85328 18.2503 3.64448 18.1602 3.46408C18.0701 3.28368 17.912 3.14646 17.7208 3.08261C17.5295 3.01876 17.3207 3.0335 17.1403 3.1236L15.6203 3.8836C15.4399 3.9737 15.3027 4.13177 15.2388 4.32304C15.175 4.51432 15.1897 4.72312 15.2798 4.90352C15.3699 5.08392 15.528 5.22114 15.7192 5.28499C15.9105 5.34885 16.1193 5.3341 16.2997 5.244ZM18.24 7.6C18.24 7.39844 18.1599 7.20513 18.0174 7.0626C17.8749 6.92007 17.6816 6.84 17.48 6.84H15.96C15.7584 6.84 15.5651 6.92007 15.4226 7.0626C15.2801 7.20513 15.2 7.39844 15.2 7.6C15.2 7.80157 15.2801 7.99487 15.4226 8.1374C15.5651 8.27993 15.7584 8.36 15.96 8.36H17.48C17.6816 8.36 17.8749 8.27993 18.0174 8.1374C18.1599 7.99487 18.24 7.80157 18.24 7.6ZM13.68 14.44V0.76C13.68 0.558435 13.5999 0.365127 13.4574 0.222599C13.3149 0.0800712 13.1216 0 12.92 0C12.7184 0 12.5251 0.0800712 12.3826 0.222599C12.2401 0.365127 12.16 0.558435 12.16 0.76C12.16 3.00124 10.1969 3.8 8.36 3.8H3.04C2.23374 3.8 1.46051 4.12029 0.890396 4.6904C0.320285 5.26051 0 6.03374 0 6.84L0 8.36C0 9.16626 0.320285 9.9395 0.890396 10.5096C1.46051 11.0797 2.23374 11.4 3.04 11.4H8.36C10.1969 11.4 12.16 12.1988 12.16 14.44C12.16 14.6416 12.2401 14.8349 12.3826 14.9774C12.5251 15.1199 12.7184 15.2 12.92 15.2C13.1216 15.2 13.3149 15.1199 13.4574 14.9774C13.5999 14.8349 13.68 14.6416 13.68 14.44ZM6.22136 12.92H3.04C2.68616 12.9186 2.33368 12.876 1.98968 12.7931L3.88968 17.0354C4.04925 17.394 4.30934 17.6986 4.63846 17.9124C4.96758 18.1262 5.35162 18.24 5.74408 18.24C6.05633 18.2396 6.36351 18.161 6.63762 18.0115C6.91174 17.862 7.14408 17.6462 7.31346 17.3839C7.48285 17.1216 7.58389 16.8211 7.60739 16.5097C7.63089 16.1983 7.5761 15.886 7.448 15.6013L6.22136 12.92Z" fill="#546EA4"/>
</g>
<defs>
<clipPath id="clip0_1544_531">
<rect width="18.24" height="18.24" fill="white"/>
</clipPath>
</defs>
</svg>
