<svg width="14" height="14" viewBox="0 0 14 14" fill="none" xmlns="http://www.w3.org/2000/svg">
<path d="M6.72289 1.33877C6.74845 1.28712 6.78794 1.24365 6.8369 1.21325C6.88586 1.18285 6.94234 1.16675 6.99997 1.16675C7.0576 1.16675 7.11408 1.18285 7.16304 1.21325C7.212 1.24365 7.25149 1.28712 7.27705 1.33877L8.62455 4.06819C8.71332 4.24783 8.84436 4.40326 9.00642 4.52112C9.16848 4.63898 9.35671 4.71575 9.55497 4.74485L12.5685 5.18585C12.6256 5.19413 12.6792 5.21821 12.7233 5.25539C12.7675 5.29256 12.8003 5.34134 12.8181 5.39621C12.836 5.45107 12.8381 5.50984 12.8243 5.56586C12.8105 5.62187 12.7813 5.67291 12.74 5.71319L10.5606 7.83535C10.4169 7.97541 10.3094 8.1483 10.2473 8.33914C10.1852 8.52997 10.1704 8.73304 10.2042 8.93085L10.7187 11.9292C10.7288 11.9863 10.7226 12.045 10.7009 12.0988C10.6792 12.1525 10.6428 12.199 10.596 12.2331C10.5491 12.2672 10.4935 12.2874 10.4357 12.2914C10.3779 12.2954 10.3201 12.2831 10.269 12.2559L7.57514 10.8395C7.39764 10.7463 7.20016 10.6976 6.99968 10.6976C6.7992 10.6976 6.60172 10.7463 6.42422 10.8395L3.73097 12.2559C3.67983 12.2829 3.62212 12.2951 3.5644 12.291C3.50668 12.2869 3.45127 12.2667 3.40448 12.2326C3.35768 12.1986 3.32137 12.1521 3.29969 12.0985C3.278 12.0448 3.27181 11.9862 3.2818 11.9292L3.79572 8.93144C3.82967 8.73353 3.81496 8.53033 3.75287 8.33938C3.69078 8.14842 3.58316 7.97544 3.4393 7.83535L1.25997 5.71377C1.21832 5.67354 1.1888 5.62242 1.17478 5.56623C1.16077 5.51004 1.16281 5.45105 1.18068 5.39596C1.19856 5.34088 1.23154 5.29193 1.27588 5.25468C1.32022 5.21743 1.37413 5.19338 1.43147 5.18527L4.44439 4.74485C4.64287 4.71598 4.83136 4.6393 4.99365 4.52143C5.15593 4.40355 5.28713 4.24801 5.37597 4.06819L6.72289 1.33877Z" fill="#FF8904" stroke="#FF8904" stroke-width="1.16667" stroke-linecap="round" stroke-linejoin="round"/>
</svg>
