<svg width="24" height="24" viewBox="0 0 24 24" fill="none" xmlns="http://www.w3.org/2000/svg">
<path d="M16.214 12.7776C15.0901 11.655 14.0131 10.5792 12.8704 9.43796C13.1982 9.12925 13.5448 8.79249 13.91 8.48378C13.9943 8.4183 14.1629 8.39023 14.2753 8.4183C15.5116 8.727 16.5418 8.34346 17.1038 7.36122C17.6657 6.37898 17.469 5.30319 16.5699 4.39579C15.3336 3.16097 14.1067 1.92615 12.8517 0.700687C12.1586 0.0177952 11.3157 -0.178653 10.3885 0.16747C9.47065 0.504239 8.9649 1.20584 8.86187 2.16937C8.83378 2.41259 8.83378 2.69323 8.92743 2.90839C9.09602 3.30129 8.92744 3.5258 8.66519 3.77838C6.98872 5.43416 5.32161 7.09929 3.66387 8.77378C3.46718 8.97022 3.30797 9.03571 3.01763 8.95151C1.96866 8.63346 0.900962 9.06377 0.348381 9.98053C-0.213566 10.8973 -0.0918109 12.0292 0.685549 12.8244C1.95929 14.1247 3.26114 15.4156 4.55362 16.6972C5.35907 17.4923 6.5017 17.614 7.43828 17.0527C8.36549 16.4914 8.74949 15.425 8.45915 14.3305C8.42168 14.1808 8.47788 13.9469 8.5809 13.8253C8.86187 13.4885 9.18968 13.1985 9.46128 12.9273C10.5664 14.0311 11.6529 15.1163 12.758 16.2295C12.5145 16.8094 12.552 16.9872 13.0765 17.511C14.9309 19.3633 16.776 21.2249 18.6397 23.0677C19.6044 24.0219 20.9437 24.2558 22.1425 23.7132C23.3226 23.1519 24.0532 21.9826 23.997 20.6823C23.9595 19.8871 23.6504 19.1949 23.0885 18.6336C21.1966 16.7346 19.286 14.845 17.3941 12.946C17.0195 12.5624 16.6261 12.5063 16.214 12.7776ZM7.34462 12.7308C6.45487 11.8421 5.54639 10.9441 4.6941 10.0928C6.49233 8.29669 8.31866 6.46317 10.0982 4.67643C10.9692 5.54641 11.8683 6.45382 12.7487 7.33316C10.9692 9.1199 9.15221 10.9347 7.34462 12.7308ZM16.7572 14.555C18.4993 16.2856 20.2694 18.0349 22.0208 19.8029C22.6015 20.3923 22.5546 21.3278 21.9833 21.9171C21.4027 22.5158 20.438 22.5813 19.8386 21.9919C18.0591 20.2426 16.317 18.4652 14.5844 16.7253C15.3055 16.0049 16.0361 15.2846 16.7572 14.555ZM6.24882 15.9114C5.98658 15.743 5.75243 15.6401 5.58385 15.4811C4.35693 14.2743 3.14875 13.0676 1.94056 11.8515C1.52847 11.4305 1.49101 10.9534 1.82817 10.6166C2.17471 10.2799 2.6149 10.3267 3.05509 10.757C4.26328 11.9544 5.4621 13.1611 6.66092 14.3585C6.74521 14.4427 6.87633 14.5363 6.89506 14.6392C6.92316 14.9011 6.97935 15.2098 6.86696 15.425C6.77331 15.6401 6.48297 15.743 6.24882 15.9114ZM14.9309 6.98703C14.8185 6.92155 14.5844 6.81865 14.4158 6.65026C13.1982 5.44351 11.9807 4.23676 10.7725 3.02065C10.3417 2.59033 10.3042 2.14131 10.6601 1.79518C10.9973 1.46777 11.4656 1.51454 11.8964 1.9355C13.1046 3.1329 14.3034 4.33966 15.5022 5.53706C15.5959 5.6306 15.6989 5.74286 15.7645 5.86447C16.0267 6.37898 15.6333 6.99639 14.9309 6.98703ZM14.0224 14.9385C12.9173 13.8347 11.8308 12.7495 10.7819 11.6924C11.0909 11.3837 11.4375 11.0376 11.7184 10.757C12.7861 11.8234 13.8726 12.9085 14.9684 14.003C14.6687 14.3024 14.3315 14.6392 14.0224 14.9385Z" fill="#546EA4"/>
<path d="M1.61245 22.3848C1.32211 22.3848 1.08797 22.3754 0.853824 22.3848C0.366803 22.4128 0.0296354 22.7496 0.0390005 23.1799C0.0483665 23.6102 0.385535 23.9376 0.872556 23.947C1.60309 23.9564 2.33362 23.947 3.07351 23.947C6.42646 23.947 9.77941 23.947 13.1324 23.947C13.713 23.947 14.0315 23.7131 14.0877 23.2735C14.1439 22.7964 13.8442 22.4315 13.3478 22.3848C13.1043 22.3661 12.8608 22.3848 12.5891 22.3848C12.561 21.9825 12.561 21.627 12.5142 21.2809C12.3363 20.1116 11.4091 19.2884 10.229 19.279C8.12167 19.2603 6.02374 19.2603 3.91643 19.279C2.63332 19.2884 1.64992 20.2893 1.61245 21.5709C1.60309 21.8235 1.61245 22.0667 1.61245 22.3848ZM3.1859 22.3661C3.1859 22.0667 3.16717 21.8141 3.1859 21.5616C3.22337 21.1312 3.47624 20.86 3.90707 20.86C6.01437 20.8506 8.12167 20.8506 10.229 20.86C10.6692 20.86 10.9127 21.1406 10.9689 21.5616C10.997 21.8235 10.9782 22.0854 10.9782 22.3661C8.36518 22.3661 5.79896 22.3661 3.1859 22.3661Z" fill="#546EA4"/>
</svg>
