<svg width="43" height="37" viewBox="0 0 43 37" fill="none" xmlns="http://www.w3.org/2000/svg">
<g clip-path="url(#clip0_1698_3925)">
<path d="M0 18.081C0 12.4296 1.01267 8.00333 3.038 4.802C5.096 1.60067 8.49334 0 13.23 0C17.9667 0 21.3477 1.60067 23.373 4.802C25.431 8.00333 26.46 12.4296 26.46 18.081C26.46 23.765 25.431 28.224 23.373 31.458C21.3477 34.692 17.9667 36.309 13.23 36.309C8.49334 36.309 5.096 34.692 3.038 31.458C1.01267 28.224 0 23.765 0 18.081ZM19.698 18.081C19.698 15.6636 19.5347 13.6383 19.208 12.005C18.914 10.339 18.2934 8.98333 17.346 7.938C16.4314 6.89267 15.0594 6.37 13.23 6.37C11.4007 6.37 10.0124 6.89267 9.065 7.938C8.15034 8.98333 7.52967 10.339 7.203 12.005C6.909 13.6383 6.762 15.6636 6.762 18.081C6.762 20.5636 6.909 22.6543 7.203 24.353C7.497 26.019 8.11767 27.3746 9.065 28.42C10.0124 29.4326 11.4007 29.939 13.23 29.939C15.0594 29.939 16.4477 29.4326 17.395 28.42C18.3424 27.3746 18.963 26.019 19.257 24.353C19.551 22.6543 19.698 20.5636 19.698 18.081ZM30.8448 7.007V0.686H42.6538V36.407H35.5978V7.007H30.8448Z" fill="#466BA9"/>
</g>
<defs>
<clipPath id="clip0_1698_3925">
<rect width="43" height="37" fill="white"/>
</clipPath>
</defs>
</svg>
