<svg width="30" height="36" viewBox="0 0 30 36" fill="none" xmlns="http://www.w3.org/2000/svg">
<g clip-path="url(#clip0_1698_3927)">
<path d="M24.2 12H10.8C10.3582 12 10 12.3582 10 12.8C10 13.2418 10.3582 13.6 10.8 13.6H24.2C24.6418 13.6 25 13.2418 25 12.8C25 12.3582 24.6418 12 24.2 12Z" fill="#466BA9"/>
<path d="M24.2 17H10.8C10.3582 17 10 17.3582 10 17.8C10 18.2418 10.3582 18.6 10.8 18.6H24.2C24.6418 18.6 25 18.2418 25 17.8C25 17.3582 24.6418 17 24.2 17Z" fill="#466BA9"/>
<path d="M24.2 22H10.8C10.3582 22 10 22.3582 10 22.8C10 23.2418 10.3582 23.6 10.8 23.6H24.2C24.6418 23.6 25 23.2418 25 22.8C25 22.3582 24.6418 22 24.2 22Z" fill="#466BA9"/>
<mask id="mask0_1698_3927" style="mask-type:luminance" maskUnits="userSpaceOnUse" x="0" y="0" width="5" height="36">
<path d="M4 0H1C0.447715 0 0 0.447715 0 1V35C0 35.5523 0.447715 36 1 36H4C4.55228 36 5 35.5523 5 35V1C5 0.447715 4.55228 0 4 0Z" fill="white"/>
</mask>
<g mask="url(#mask0_1698_3927)">
<path d="M4 0H1C0.447715 0 0 0.447715 0 1V35C0 35.5523 0.447715 36 1 36H4C4.55228 36 5 35.5523 5 35V1C5 0.447715 4.55228 0 4 0Z" stroke="#466BA9" stroke-width="3.2"/>
</g>
<mask id="mask1_1698_3927" style="mask-type:luminance" maskUnits="userSpaceOnUse" x="6" y="0" width="24" height="36">
<path d="M6 1C6 0.447716 6.44772 0 7 0H26C28.2091 0 30 1.79086 30 4V32C30 34.2091 28.2091 36 26 36H7C6.44772 36 6 35.5523 6 35V1Z" fill="white"/>
</mask>
<g mask="url(#mask1_1698_3927)">
<path d="M6 1C6 0.447716 6.44772 0 7 0H26C28.2091 0 30 1.79086 30 4V32C30 34.2091 28.2091 36 26 36H7C6.44772 36 6 35.5523 6 35V1Z" stroke="#466BA9" stroke-width="3.2"/>
</g>
</g>
<defs>
<clipPath id="clip0_1698_3927">
<rect width="30" height="36" fill="white"/>
</clipPath>
</defs>
</svg>
