<svg width="32" height="32" viewBox="0 0 32 32" fill="none" xmlns="http://www.w3.org/2000/svg">
<g clip-path="url(#clip0_1698_3988)">
<path d="M16 0C12.8355 0 9.74207 0.938384 7.11088 2.69649C4.4797 4.45459 2.42894 6.95345 1.21793 9.87707C0.00693258 12.8007 -0.309921 16.0178 0.307443 19.1214C0.924806 22.2251 2.44866 25.0761 4.6863 27.3137C6.92394 29.5514 9.77487 31.0752 12.8786 31.6926C15.9823 32.3099 19.1993 31.9931 22.1229 30.7821C25.0466 29.5711 27.5454 27.5203 29.3035 24.8891C31.0616 22.2579 32 19.1645 32 16C31.9954 11.7579 30.3082 7.69095 27.3087 4.69136C24.3091 1.69177 20.2421 0.00458811 16 0ZM16 29.3333C13.3629 29.3333 10.7851 28.5513 8.5924 27.0863C6.39975 25.6212 4.69078 23.5388 3.68161 21.1024C2.67245 18.6661 2.4084 15.9852 2.92287 13.3988C3.43734 10.8124 4.70722 8.43661 6.57192 6.57191C8.43662 4.70721 10.8124 3.43733 13.3988 2.92286C15.9852 2.40839 18.6661 2.67244 21.1025 3.68161C23.5388 4.69078 25.6212 6.39974 27.0863 8.5924C28.5514 10.7851 29.3333 13.3629 29.3333 16C29.3295 19.535 27.9235 22.9242 25.4238 25.4238C22.9242 27.9234 19.535 29.3295 16 29.3333Z" fill="#466BA9"/>
<path d="M16.9558 6.75044C16.1869 6.61035 15.3967 6.64096 14.6409 6.8401C13.8851 7.03924 13.1824 7.40205 12.5824 7.90285C11.9823 8.40365 11.4997 9.03021 11.1687 9.73817C10.8376 10.4461 10.6662 11.2182 10.6665 11.9998C10.6665 12.3534 10.807 12.6925 11.057 12.9426C11.3071 13.1926 11.6462 13.3331 11.9998 13.3331C12.3535 13.3331 12.6926 13.1926 12.9426 12.9426C13.1927 12.6925 13.3332 12.3534 13.3332 11.9998C13.3328 11.6075 13.4191 11.2199 13.5857 10.8648C13.7523 10.5096 13.9953 10.1956 14.2972 9.94515C14.5991 9.69467 14.9526 9.51389 15.3324 9.4157C15.7122 9.31752 16.109 9.30434 16.4945 9.37711C17.0212 9.47936 17.5055 9.73629 17.8855 10.1151C18.2655 10.4939 18.5239 10.9774 18.6278 11.5038C18.7328 12.0563 18.6603 12.6279 18.4208 13.1368C18.1814 13.6456 17.7871 14.0658 17.2945 14.3371C16.4787 14.8097 15.8046 15.4925 15.3424 16.3142C14.8802 17.1359 14.6468 18.0665 14.6665 19.0091V19.9998C14.6665 20.3534 14.807 20.6925 15.057 20.9426C15.3071 21.1926 15.6462 21.3331 15.9998 21.3331C16.3535 21.3331 16.6926 21.1926 16.9426 20.9426C17.1927 20.6925 17.3332 20.3534 17.3332 19.9998V19.0091C17.3164 18.5451 17.4222 18.0849 17.6399 17.6748C17.8576 17.2647 18.1795 16.9192 18.5732 16.6731C19.5392 16.1425 20.3171 15.3257 20.7999 14.335C21.2828 13.3442 21.4468 12.2283 21.2695 11.1405C21.0922 10.0527 20.5823 9.04657 19.8098 8.26044C19.0374 7.47431 18.0403 6.9468 16.9558 6.75044Z" fill="#466BA9"/>
<path d="M17.3332 23.9998C17.3332 23.2635 16.7362 22.6665 15.9998 22.6665C15.2635 22.6665 14.6665 23.2635 14.6665 23.9998C14.6665 24.7362 15.2635 25.3332 15.9998 25.3332C16.7362 25.3332 17.3332 24.7362 17.3332 23.9998Z" fill="#466BA9"/>
</g>
<defs>
<clipPath id="clip0_1698_3988">
<rect width="32" height="32" fill="white"/>
</clipPath>
</defs>
</svg>
