<svg width="40" height="40" viewBox="0 0 40 40" fill="none" xmlns="http://www.w3.org/2000/svg">
<g clip-path="url(#clip0_1698_3965)">
<mask id="mask0_1698_3965" style="mask-type:luminance" maskUnits="userSpaceOnUse" x="0" y="0" width="40" height="40">
<path d="M40 0H0V40H40V0Z" fill="white"/>
</mask>
<g mask="url(#mask0_1698_3965)">
<path d="M38.8279 37.7778H1.17187C0.524684 37.7778 0 37.2531 0 36.6059V34.2622C0 33.615 0.524684 33.0903 1.17187 33.0903H38.8279C39.4751 33.0903 39.9998 33.615 39.9998 34.2622V36.6059C39.9998 37.2531 39.4752 37.7778 38.8279 37.7778Z" fill="#466BA9"/>
<path d="M25.0781 30.6861C25.0781 30.0389 24.5534 29.5142 23.9062 29.5142H16.0938C15.4466 29.5142 14.9219 30.0389 14.9219 30.6861V31.858H25.0781V30.6861Z" fill="#466BA9"/>
<path d="M37.5781 30.6861C37.5781 30.0389 37.0534 29.5142 36.4062 29.5142H28.5938C27.9466 29.5142 27.4219 30.0389 27.4219 30.6861V31.858H37.5781V30.6861Z" fill="#466BA9"/>
<path d="M12.5781 30.6861C12.5781 30.0389 12.0534 29.5142 11.4063 29.5142H3.59374C2.94656 29.5142 2.42188 30.0389 2.42188 30.6861V31.858H12.5781V30.6861Z" fill="#466BA9"/>
<path d="M14.9219 16.3457C14.9219 16.9929 15.4466 17.5176 16.0938 17.5176H23.9062C24.5534 17.5176 25.0781 16.9929 25.0781 16.3457V15.1738H14.9219V16.3457Z" fill="#466BA9"/>
<path d="M27.4219 16.3457C27.4219 16.9929 27.9466 17.5176 28.5938 17.5176H36.4062C37.0534 17.5176 37.5781 16.9929 37.5781 16.3457V15.1738H27.4219V16.3457Z" fill="#466BA9"/>
<path d="M2.42188 16.3457C2.42188 16.9929 2.94656 17.5176 3.59374 17.5176H11.4063C12.0534 17.5176 12.5781 16.9929 12.5781 16.3457V15.1738H2.42188V16.3457Z" fill="#466BA9"/>
<path d="M29.7656 18.75H35.2344V28.2813H29.7656V18.75Z" fill="#466BA9"/>
<path d="M17.2656 18.75H22.7344V28.2813H17.2656V18.75Z" fill="#466BA9"/>
<path d="M4.76562 18.75H10.2344V28.2813H4.76562V18.75Z" fill="#466BA9"/>
<path d="M39.3504 11.7204L20.5223 2.34552C20.1934 2.1817 19.8066 2.1817 19.4777 2.34552L0.649648 11.7204C0.162854 11.9628 -0.0932379 12.5083 0.0312145 13.0378C0.155667 13.5672 0.628086 13.9414 1.17199 13.9414H38.828C39.3718 13.9414 39.8443 13.5671 39.9688 13.0378C40.0933 12.5083 39.8372 11.9628 39.3504 11.7204ZM20 9.64454C19.3528 9.64454 18.8281 9.11986 18.8281 8.47267C18.8281 7.82549 19.3528 7.30081 20 7.30081C20.6472 7.30081 21.1719 7.82549 21.1719 8.47267C21.1719 9.11986 20.6473 9.64454 20 9.64454Z" fill="#466BA9"/>
</g>
</g>
<defs>
<clipPath id="clip0_1698_3965">
<rect width="40" height="40" fill="white"/>
</clipPath>
</defs>
</svg>
