<svg width="40" height="40" viewBox="0 0 40 40" fill="none" xmlns="http://www.w3.org/2000/svg">
<path d="M3.71605 28.0075L17.1952 16.0376L19.8292 18.6716L7.85944 32.1509C6.73492 33.4263 4.77263 33.4867 3.57266 32.2867C2.37264 31.0867 2.44058 29.1244 3.71605 28.0075Z" fill="#466BA9"/>
<path d="M19.8364 30.9587C19.8364 29.6077 20.9307 28.521 22.2741 28.521H32.2062C33.5496 28.521 34.6439 29.6077 34.6439 30.9587V32.0455H19.8364V30.9587Z" fill="#466BA9"/>
<path d="M19.633 32.7998H34.8481C36.1915 32.7998 37.2858 33.8866 37.2858 35.2375V37.1621C37.2858 37.6225 36.9085 37.9998 36.4481 37.9998H18.033C17.5651 37.9998 17.1953 37.6225 17.1953 37.1621V35.2375C17.1953 33.8866 18.2896 32.7998 19.633 32.7998Z" fill="#466BA9"/>
<path d="M30.0972 13.4612L22.3943 5.7583L15.1973 12.9553L22.9002 20.6582L30.0972 13.4612Z" fill="#466BA9"/>
<path d="M14.5129 12.5795C13.8043 13.2882 12.6572 13.2882 11.9485 12.5795C11.2398 11.8708 11.2398 10.7238 11.9485 10.0151L19.4367 2.52697C19.791 2.1726 20.2572 1.99544 20.7189 2.00009C21.1805 1.99544 21.6467 2.1726 22.0011 2.52697C22.7098 3.23572 22.7098 4.38267 22.0011 5.09142L14.5129 12.5795Z" fill="#466BA9"/>
<path d="M25.8474 23.9141C25.1387 24.6228 23.9917 24.6228 23.283 23.9141C22.5743 23.2054 22.5743 22.0584 23.283 21.3497L30.7711 13.8616C31.1255 13.5073 31.5918 13.3301 32.0487 13.3301C32.5149 13.3301 32.9812 13.5073 33.3356 13.8616C34.0443 14.5703 34.0443 15.7173 33.3356 16.426L25.8474 23.9141Z" fill="#466BA9"/>
</svg>
