<svg width="14" height="14" viewBox="0 0 14 14" fill="none" xmlns="http://www.w3.org/2000/svg">
<path d="M7.71985 11.8137L12.25 7.17505" stroke="#546EA4" stroke-width="1.45833" stroke-linecap="round" stroke-linejoin="round"/>
<path d="M9.33332 3.49995L4.42516 8.50845C4.20644 8.72723 4.08357 9.02392 4.08357 9.33328C4.08357 9.64264 4.20644 9.93933 4.42516 10.1581C4.64394 10.3768 4.94063 10.4997 5.24999 10.4997C5.55935 10.4997 5.85604 10.3768 6.07482 10.1581L10.983 5.14962C11.4204 4.71205 11.6662 4.11867 11.6662 3.49995C11.6662 2.88123 11.4204 2.28785 10.983 1.85028C10.5454 1.41285 9.95204 1.16711 9.33332 1.16711C8.71461 1.16711 8.12122 1.41285 7.68366 1.85028L2.77491 6.8582C2.11847 7.51463 1.74969 8.40495 1.74969 9.33328C1.74969 10.2616 2.11847 11.1519 2.77491 11.8084C3.43134 12.4648 4.32165 12.8336 5.24999 12.8336C6.17833 12.8336 7.06864 12.4648 7.72507 11.8084" stroke="#546EA4" stroke-width="1.45833" stroke-linecap="round" stroke-linejoin="round"/>
</svg>
