<svg width="19" height="19" viewBox="0 0 19 19" fill="none" xmlns="http://www.w3.org/2000/svg">
<path d="M16.9977 3.23564C16.9977 3.60212 16.9977 3.92632 16.9977 4.29281C16.5755 4.29281 16.1745 4.29281 15.7102 4.29281C15.7735 4.46195 15.8157 4.58176 15.8649 4.69453C16.5404 6.31552 17.2017 7.9506 17.8982 9.56454C18.0952 10.0226 18.0882 10.4455 17.9475 10.8966C17.6238 11.9326 16.7374 12.6797 15.6539 12.729C15.0066 12.7642 14.3312 12.7713 13.698 12.6444C12.6286 12.4259 11.8687 11.4886 11.7562 10.4032C11.7351 10.1918 11.7702 9.95216 11.8476 9.75483C12.5371 8.06336 13.2477 6.37895 13.9442 4.68748C13.9864 4.58176 14.0216 4.47605 14.0779 4.32804C13.9442 4.31395 13.8457 4.29985 13.7472 4.29985C12.7834 4.29985 11.8265 4.3069 10.8627 4.29281C10.6446 4.29281 10.5461 4.37033 10.4194 4.54653C10.2576 4.7791 10.0114 4.94825 9.81436 5.16673C9.71586 5.27245 9.59625 5.4134 9.59625 5.54026C9.58218 7.88012 9.58922 10.2129 9.58218 12.5528C9.58218 12.7642 9.6455 12.8558 9.84953 12.9193C10.736 13.2082 11.3059 13.8143 11.5944 14.7024C11.6295 14.8151 11.7632 14.949 11.8758 14.9913C13.2196 15.4424 13.9372 16.563 13.7754 18.05C10.6305 18.05 7.49262 18.05 4.34772 18.05C4.09444 16.7462 4.86131 15.4494 6.14179 15.0407C6.35989 14.9702 6.47246 14.8715 6.54985 14.6389C6.8172 13.7932 7.38708 13.2082 8.23135 12.9334C8.46353 12.8558 8.53388 12.7501 8.53388 12.5176C8.52685 10.2059 8.52685 7.88717 8.53388 5.5755C8.53388 5.35702 8.45649 5.25835 8.2806 5.13149C8.04139 4.9553 7.85847 4.70862 7.6474 4.49014C7.57704 4.41967 7.49965 4.3069 7.42226 4.3069C6.31064 4.29281 5.19902 4.29985 4.02408 4.29985C4.08037 4.46195 4.12258 4.57472 4.16479 4.68748C4.84021 6.32256 5.50859 7.96469 6.21214 9.58568C6.39507 10.0156 6.39507 10.4244 6.26843 10.8472C5.95886 11.8973 5.05831 12.6515 3.9678 12.729C3.4542 12.7642 2.93357 12.7642 2.41997 12.729C1.17468 12.6303 0.168589 11.6225 0.0560202 10.375C0.0349135 10.1777 0.0700914 9.95216 0.147483 9.76187C0.836968 8.07041 1.54756 6.38599 2.25112 4.69453C2.29333 4.58881 2.33554 4.4831 2.39886 4.3069C1.94859 4.3069 1.53349 4.3069 1.11839 4.3069C1.11839 3.92632 1.11839 3.60212 1.11839 3.23564C1.27317 3.23564 1.40685 3.23564 1.54756 3.23564C3.43309 3.23564 5.32566 3.22859 7.21119 3.24269C7.44337 3.24269 7.58408 3.17926 7.71072 2.96783C7.8444 2.74934 8.05546 2.54496 8.27357 2.41105C8.4776 2.28419 8.53388 2.15733 8.52685 1.9318C8.51278 1.3116 8.51981 0.691396 8.51981 0.0500488C8.87862 0.0500488 9.20226 0.0500488 9.57515 0.0500488C9.57515 0.642061 9.58922 1.23407 9.56811 1.82609C9.56108 2.108 9.61032 2.29829 9.89175 2.43924C10.0958 2.54496 10.2787 2.75639 10.3913 2.96078C10.5179 3.18631 10.6586 3.23564 10.8908 3.23564C12.7763 3.22859 14.6689 3.22859 16.5544 3.22859C16.7092 3.23564 16.8429 3.23564 16.9977 3.23564ZM14.9011 5.14559C14.2679 6.67495 13.6698 8.10565 13.0648 9.55749C14.3101 9.55749 15.4991 9.55749 16.7374 9.55749C16.1253 8.0986 15.5343 6.67495 14.9011 5.14559ZM5.05831 9.56454C4.44622 8.09155 3.84819 6.66086 3.21499 5.14559C2.58179 6.67495 1.98377 8.0986 1.37871 9.56454C2.624 9.56454 3.80598 9.56454 5.05831 9.56454ZM5.46637 16.9929C7.87957 16.9929 10.2506 16.9929 12.6286 16.9929C12.4034 16.3727 11.8828 15.971 11.2426 15.9639C9.79325 15.9498 8.33689 15.9428 6.88756 15.9639C6.21918 15.978 5.75483 16.3445 5.46637 16.9929ZM1.20985 10.664C1.47017 11.2419 1.85713 11.6013 2.43404 11.6577C2.95467 11.7071 3.48938 11.7 4.01001 11.6577C4.56582 11.6154 5.04424 11.1785 5.17088 10.664C3.87633 10.664 2.58179 10.664 1.20985 10.664ZM12.8889 10.664C13.1281 11.2137 13.494 11.5802 14.0357 11.6436C14.5985 11.7071 15.1825 11.7 15.7524 11.6507C16.3012 11.6013 16.7866 11.108 16.8288 10.671C15.5343 10.664 14.2397 10.664 12.8889 10.664ZM10.5179 14.8926C10.2576 14.1949 9.6455 13.8002 8.94898 13.8496C8.30874 13.8919 7.73886 14.3359 7.61926 14.8926C8.58313 14.8926 9.53997 14.8926 10.5179 14.8926ZM9.57515 3.75013C9.56811 3.46822 9.34297 3.24974 9.05451 3.24974C8.75902 3.24974 8.52685 3.48936 8.53388 3.78537C8.54092 4.06728 8.76606 4.28576 9.05451 4.28576C9.35704 4.28576 9.58218 4.04613 9.57515 3.75013Z" fill="#546EA4" stroke="#546EA4" stroke-width="0.1"/>
</svg>
