<svg width="19" height="19" viewBox="0 0 19 19" fill="none" xmlns="http://www.w3.org/2000/svg">
<path d="M10.6953 1.31711L12.3048 4.55394C12.5217 5.00159 13.1038 5.42628 13.5947 5.5181L16.5055 6.00018C18.3662 6.31009 18.8 7.66451 17.4644 9.01892L15.1928 11.3031C14.8161 11.6818 14.5992 12.4279 14.7248 12.9674L15.3754 15.791C15.8891 18.0178 14.702 18.8901 12.75 17.7193L10.0218 16.0894C9.53092 15.791 8.70905 15.791 8.2182 16.0894L5.48999 17.7193C3.53801 18.8786 2.35086 18.0178 2.86454 15.791L3.51521 12.9674C3.64077 12.4394 3.42388 11.6933 3.04719 11.3031L0.775601 9.01892C-0.55996 7.67599 -0.126192 6.32157 1.73446 6.00018L4.64529 5.5181C5.13613 5.43775 5.71831 5.00159 5.93519 4.55394L7.54472 1.31711C8.40085 -0.439038 9.81632 -0.439038 10.6953 1.31711Z" fill="#ED8A19"/>
</svg>
